<?xml version="1.0" standalone="no"?>
<!DOCTYPE svg PUBLIC "-//W3C//DTD SVG 20010904//EN"
 "http://www.w3.org/TR/2001/REC-SVG-20010904/DTD/svg10.dtd">
<svg version="1.0" xmlns="http://www.w3.org/2000/svg"
 width="269.000000pt" height="269.000000pt" viewBox="0 0 269.000000 269.000000"
 preserveAspectRatio="xMidYMid meet">
<metadata>
Created by potrace 1.14, written by Peter Selinger 2001-2017
</metadata>
<g transform="translate(0.000000,269.000000) scale(0.100000,-0.100000)"
fill="#000000" stroke="none">
<path d="M2061 2320 c-106 -107 -116 -286 -20 -392 8 -10 26 -39 38 -64 28
-55 24 -119 -11 -170 -27 -39 -54 -56 -137 -83 -83 -27 -93 -27 -86 2 3 12 6
72 8 132 l2 110 -102 -2 -103 -2 -1 32 c0 17 -2 61 -4 97 -2 36 -4 82 -4 103
l-1 38 -132 -2 c-73 -1 -146 -6 -163 -10 -16 -4 -51 -10 -77 -13 -26 -3 -58
-8 -70 -10 -13 -3 -43 -8 -68 -11 -42 -5 -62 -8 -135 -21 -16 -3 -58 -12 -92
-21 -72 -18 -75 -24 -70 -146 2 -54 -1 -67 -13 -68 -8 0 -47 -2 -85 -4 -87 -5
-152 -12 -164 -19 -7 -5 -7 -45 3 -158 l3 -37 -186 0 c-200 0 -309 -8 -327
-22 -16 -13 -42 -111 -50 -189 -9 -78 -8 -253 1 -295 3 -16 9 -43 12 -60 3
-16 9 -38 14 -47 5 -9 9 -23 9 -31 0 -8 8 -32 17 -53 9 -22 17 -42 17 -45 2
-12 51 -104 59 -107 4 -2 7 -8 7 -14 0 -26 148 -182 183 -194 9 -3 17 -9 17
-13 0 -13 199 -108 265 -126 33 -10 67 -20 75 -22 8 -3 29 -7 45 -9 17 -1 46
-6 65 -9 111 -21 331 -21 440 1 14 2 39 6 55 9 34 4 182 42 205 52 8 3 20 7
25 8 81 20 326 147 403 209 40 33 144 137 174 176 33 41 122 200 113 200 -2 0
3 16 11 35 8 20 17 50 20 68 10 59 11 233 3 283 -13 73 -22 220 -15 246 7 29
41 67 86 98 19 13 38 29 42 35 4 5 8 7 8 2 0 -6 21 5 95 51 11 7 28 15 38 18
9 4 17 10 17 15 0 5 6 9 14 9 8 0 36 20 64 45 75 67 110 171 73 217 -15 18
-27 21 -90 20 -40 -1 -76 -4 -81 -7 -4 -3 -24 -7 -44 -10 -46 -5 -151 -61
-176 -92 -10 -13 -19 -23 -21 -23 -2 0 -4 27 -3 59 2 102 -54 204 -133 244
-31 17 -32 16 -62 -13z"/>
</g>
</svg>
